:FULLY-SPECIFIED
:FORCE-ALL-JOINTS-BE-3DOF
:DEGREES
1053
root 1.20515 15.1607 32.5541 4.89165 -3.35613 3.41845
lfemur 8.78852 0.4265 5.70556
ltibia -3.02153e-014 0 0
lfoot -30.3873 -11.1373 2.1302e-005
ltoes -34.3024 0 0
rfemur -30.9991 -15.6378 -6.27965
rtibia 49.9929 -0 0
rfoot -21.8718 5.32698 0.000116572
rtoes -41.0072 0 0
lowerback -1.83796 -0.0627797 -0.214053
upperback -0.481596 -0.0461524 -6.02981
thorax 0.531523 -0.0246119 -6.13052
lowerneck -7.05602 0.719364 6.49705
upperneck 1.36046 0.268811 3.71176
head 1.62624 0.264895 0.0768104
lclavicle 2.18663e-015 2.54444e-014 0
lhumerus -58.7292 -46.9176 115.431
lradius 55.8135 -0 0
lwrist 25.5759 0 0
lhand 37.4542 25.2885 3.23528e-005
lfingers 7.12502 -0 0
lthumb 60.2533 38.8 1.0243e-005
rclavicle 2.18663e-015 2.54444e-014 0
rhumerus 2.10195 -23.4964 0.621462
rradius 27.4882 -0 0
rwrist -9.67725 0 0
rhand -30.5125 -41.9991 7.77831e-005
rfingers 7.12502 -0 0
rthumb -3.8124 -71.9448 7.48052e-005
1054
root 1.20708 15.1608 32.5577 4.89346 -3.35527 3.41522
lfemur 8.7999 0.426806 5.70262
ltibia -3.02153e-014 0 0
lfoot -30.3954 -11.1424 1.10183e-005
ltoes -34.2976 0 0
rfemur -30.9816 -15.6275 -6.28925
rtibia 49.9854 -0 0
rfoot -21.8576 5.34326 6.02958e-005
rtoes -40.9616 0 0
lowerback -1.85074 -0.0606404 -0.22893
upperback -0.480064 -0.0424402 -6.03225
thorax 0.540707 -0.0226039 -6.12454
lowerneck -7.05051 0.713395 6.50305
upperneck 1.34885 0.261201 3.71833
head 1.62135 0.260815 0.0775712
lclavicle 2.18663e-015 2.54444e-014 0
lhumerus -58.7309 -46.931 115.435
lradius 55.815 -0 0
lwrist 25.5865 0 0
lhand 37.4608 25.2981 1.67342e-005
lfingers 7.12502 -0 0
lthumb 60.259 38.8035 5.2981e-006
rclavicle 2.18663e-015 2.54444e-014 0
rhumerus 2.08077 -23.4847 0.633905
rradius 27.4835 -0 0
rwrist -9.66103 0 0
rhand -30.5063 -41.9746 4.02326e-005
rfingers 7.12502 -0 0
rthumb -3.80634 -71.9204 3.86923e-005
1055
root 1.20902 15.1608 32.5613 4.89526 -3.3544 363.412
lfemur 8.81127 0.427112 5.69968
ltibia -3.02153e-014 0 0
lfoot -30.4036 -11.1476 0
ltoes -34.2928 0 0
rfemur -30.964 -15.6172 -6.29884
rtibia 49.9779 0 0
rfoot -21.8435 5.35955 0
rtoes -40.916 0 0
lowerback -1.86352 -0.0585045 -0.243808
upperback -0.478533 -0.038728 -6.03469
thorax 0.549891 -0.0205969 -6.11856
lowerneck -7.045 0.707426 6.50905
upperneck 1.33724 0.253593 3.72491
head 1.61646 0.256736 0.0783323
lclavicle 2.18663e-015 2.54444e-014 0
lhumerus -58.7326 -46.9443 115.439
lradius 55.8165 0 0
lwrist 25.5971 0 0
lhand 37.4675 25.3077 0
lfingers 7.12502 0 0
lthumb 60.2647 38.8071 0
rclavicle 2.18663e-015 2.54444e-014 0
rhumerus 2.05959 -23.473 0.646342
rradius 27.4787 0 0
rwrist -9.64481 0 0
rhand -30.5 -41.9501 0
rfingers 7.12502 0 0
rthumb -3.80028 -791.896 0
1056
root 1.21096 15.1611 32.5653 4.90056 -3.36229 3.40443
lfemur 8.76671 0.439579 5.67816
ltibia 0.120367 -0 0
lfoot -30.4681 -11.1226 -0.00042141
ltoes -34.2925 0 0
rfemur -30.945 -15.5924 -6.30299
rtibia 49.9587 -0 0
rfoot -21.842 5.34427 -5.96324e-006
rtoes -40.9213 0 0
lowerback -1.87176 -0.0579707 -0.254432
upperback -0.479765 -0.0376055 -6.03096
thorax 0.553373 -0.020012 -6.1085
lowerneck -7.06249 0.705137 6.50189
upperneck 1.36453 0.24797 3.73134
head 1.62848 0.25523 0.0814229
lclavicle 8.94531e-016 3.49861e-014 0
lhumerus -58.7186 -46.9347 115.436
lradius 55.8115 -0 0
lwrist 25.5965 0 0
lhand 37.4748 25.31 4.45503e-006
lfingers 7.12502 -0 0
lthumb 60.2709 38.8027 -7.17687e-006
rclavicle 8.94531e-016 3.49861e-014 0
rhumerus 2.05427 -23.4459 0.640058
rradius 27.4822 -0 0
rwrist -9.62371 0 0
rhand -30.5015 -41.9251 -9.56289e-006
rfingers 7.12502 -0 0
rthumb -3.80169 -71.871 -9.24457e-006
1057
root 1.21289 15.1615 32.5692 4.90587 -3.37018 3.39686
lfemur 8.72215 0.45203 5.65662
ltibia 0.240734 -0 0
lfoot -30.5325 -11.0977 -0.000814728
ltoes -34.2922 0 0
rfemur -30.9259 -15.5675 -6.30714
rtibia 49.9396 -0 0
rfoot -21.8405 5.32898 -1.15289e-005
rtoes -40.9266 0 0
lowerback -1.88001 -0.0574385 -0.265056
upperback -0.480998 -0.036483 -6.02724
thorax 0.556855 -0.0194278 -6.09845
lowerneck -7.07998 0.702846 6.49472
upperneck 1.39183 0.242344 3.73777
head 1.64051 0.253723 0.0845132
lclavicle 8.94531e-016 3.49861e-014 0
lhumerus -58.7047 -46.925 115.434
lradius 55.8065 -0 0
lwrist 25.596 0 0
lhand 37.4821 25.3124 8.61306e-006
lfingers 7.12502 -0 0
lthumb 60.2772 38.7983 -1.38753e-005
rclavicle 8.94531e-016 3.49861e-014 0
rhumerus 2.04894 -23.4187 0.633772
rradius 27.4857 -0 0
rwrist -9.60261 0 0
rhand -30.5029 -41.9001 -1.84883e-005
rfingers 7.12502 -0 0
rthumb -3.8031 -71.8459 -1.78728e-005
1058
root 1.21483 15.1618 32.5732 4.91118 -3.37808 3.38929
lfemur 8.67758 0.464463 5.63508
ltibia 0.361101 -0 0
lfoot -30.597 -11.0727 -0.00117996
ltoes -34.2919 0 0
rfemur -30.9069 -15.5427 -6.31127
rtibia 49.9204 -0 0
rfoot -21.839 5.3137 -1.66971e-005
rtoes -40.9319 0 0
lowerback -1.88825 -0.0569078 -0.275681
upperback -0.48223 -0.0353603 -6.02351
thorax 0.560337 -0.0188442 -6.08839
lowerneck -7.09747 0.700553 6.48756
upperneck 1.41912 0.236715 3.7442
head 1.65253 0.252216 0.0876032
lclavicle 8.94531e-016 3.49861e-014 0
lhumerus -58.6907 -46.9154 115.431
lradius 55.8015 -0 0
lwrist 25.5954 0 0
lhand 37.4894 25.3147 1.24741e-005
lfingers 7.12502 -0 0
lthumb 60.2834 38.7939 -2.00952e-005
rclavicle 8.94531e-016 3.49861e-014 0
rhumerus 2.04362 -23.3916 0.627485
rradius 27.4892 -0 0
rwrist -9.58151 0 0
rhand -30.5044 -41.8751 -2.67761e-005
rfingers 7.12502 -0 0
rthumb -3.80451 -71.8209 -2.58848e-005
1059
root 1.21677 15.1621 32.5771 4.91648 -3.38597 3.38172
lfemur 8.63301 0.47688 5.61353
ltibia 0.481468 -0 0
lfoot -30.6614 -11.0477 -0.00151709
ltoes -34.2916 0 0
rfemur -30.8879 -15.5178 -6.31539
rtibia 49.9012 -0 0
rfoot -21.8375 5.29841 -2.14677e-005
rtoes -40.9373 0 0
lowerback -1.8965 -0.0563786 -0.286305
upperback -0.483462 -0.0342376 -6.01979
thorax 0.563819 -0.0182612 -6.07834
lowerneck -7.11496 0.698258 6.4804
upperneck 1.44641 0.231083 3.75063
head 1.66455 0.250708 0.0906929
lclavicle 8.94531e-016 3.49861e-014 0
lhumerus -58.6768 -46.9057 115.429
lradius 55.7965 -0 0
lwrist 25.5948 0 0
lhand 37.4967 25.317 1.60381e-005
lfingers 7.12502 -0 0
lthumb 60.2896 38.7895 -2.58367e-005
rclavicle 8.94531e-016 3.49861e-014 0
rhumerus 2.03829 -23.3645 0.621196
rradius 27.4926 -0 0
rwrist -9.56041 0 0
rhand -30.5058 -41.8501 -3.44265e-005
rfingers 7.12502 -0 0
rthumb -3.80592 -71.7959 -3.32805e-005
1060
root 1.2187 15.1624 32.5811 4.92179 -3.39386 3.37415
lfemur 8.58843 0.489281 5.59197
ltibia 0.601835 -0 0
lfoot -30.7259 -11.0228 -0.00182613
ltoes -34.2913 0 0
rfemur -30.8688 -15.4929 -6.31951
rtibia 49.882 -0 0
rfoot -21.836 5.28313 -2.58407e-005
rtoes -40.9426 0 0
lowerback -1.90474 -0.0558509 -0.296929
upperback -0.484695 -0.0331148 -6.01606
thorax 0.567302 -0.0176787 -6.06828
lowerneck -7.13245 0.695961 6.47324
upperneck 1.47371 0.225448 3.75705
head 1.67658 0.249199 0.0937823
lclavicle 8.94531e-016 3.49861e-014 0
lhumerus -58.6628 -46.8961 115.426
lradius 55.7915 -0 0
lwrist 25.5942 0 0
lhand 37.504 25.3193 1.93051e-005
lfingers 7.12502 -0 0
lthumb 60.2958 38.7851 -3.10998e-005
rclavicle 8.94531e-016 3.49861e-014 0
rhumerus 2.03296 -23.3373 0.614906
rradius 27.4961 -0 0
rwrist -9.53931 0 0
rhand -30.5073 -41.8251 -4.14393e-005
rfingers 7.12502 -0 0
rthumb -3.80733 -71.7708 -4.00599e-005
1061
root 1.22064 15.1628 32.585 4.9271 -3.40175 3.36658
lfemur 8.54384 0.501664 5.57039
ltibia 0.722203 -0 0
lfoot -30.7904 -10.9978 -0.00210708
ltoes -34.2909 0 0
rfemur -30.8498 -15.4681 -6.32362
rtibia 49.8629 -0 0
rfoot -21.8346 5.26785 -2.98162e-005
rtoes -40.9479 0 0
lowerback -1.91299 -0.0553248 -0.307554
upperback -0.485927 -0.031992 -6.01234
thorax 0.570784 -0.0170969 -6.05823
lowerneck -7.14994 0.693661 6.46608
upperneck 1.501 0.219809 3.76347
head 1.6886 0.24769 0.0968713
lclavicle 8.94531e-016 3.49861e-014 0
lhumerus -58.6489 -46.8864 115.424
lradius 55.7865 -0 0
lwrist 25.5937 0 0
lhand 37.5113 25.3217 2.22752e-005
lfingers 7.12502 -0 0
lthumb 60.3021 38.7807 -3.58844e-005
rclavicle 8.94531e-016 3.49861e-014 0
rhumerus 2.02763 -23.3102 0.608615
rradius 27.4996 -0 0
rwrist -9.51821 0 0
rhand -30.5088 -41.8001 -4.78146e-005
rfingers 7.12502 -0 0
rthumb -3.80874 -71.7458 -4.62229e-005
1062
root 1.22258 15.1631 32.589 4.93241 -3.40963 3.359
lfemur 8.49926 0.514031 5.54881
ltibia 0.84257 -0 0
lfoot -30.8548 -10.9728 -0.00235993
ltoes -34.2906 0 0
rfemur -30.8308 -15.4432 -6.32772
rtibia 49.8437 -0 0
rfoot -21.8331 5.25256 -3.33942e-005
rtoes -40.9532 0 0
lowerback -1.92123 -0.0548002 -0.318179
upperback -0.487159 -0.030869 -6.00861
thorax 0.574267 -0.0165158 -6.04817
lowerneck -7.16743 0.691359 6.45892
upperneck 1.52829 0.214168 3.76989
head 1.70062 0.24618 0.09996
lclavicle 8.94531e-016 3.49861e-014 0
lhumerus -58.6349 -46.8768 115.421
lradius 55.7815 -0 0
lwrist 25.5931 0 0
lhand 37.5186 25.324 2.49482e-005
lfingers 7.12502 -0 0
lthumb 60.3083 38.7763 -4.01905e-005
rclavicle 8.94531e-016 3.49861e-014 0
rhumerus 2.02229 -23.2831 0.602322
rradius 27.5031 -0 0
rwrist -9.49711 0 0
rhand -30.5102 -41.7751 -5.35523e-005
rfingers 7.12502 -0 0
rthumb -3.81015 -71.7208 -5.17697e-005
1063
root 1.22451 15.1634 32.5929 4.93772 -3.41752 3.35143
lfemur 8.45466 0.526381 5.52722
ltibia 0.962937 -0 0
lfoot -30.9193 -10.9478 -0.00258469
ltoes -34.2903 0 0
rfemur -30.8118 -15.4184 -6.3318
rtibia 49.8245 -0 0
rfoot -21.8316 5.23728 -3.65746e-005
rtoes -40.9585 0 0
lowerback -1.92948 -0.0542771 -0.328803
upperback -0.488391 -0.029746 -6.00489
thorax 0.577749 -0.0159352 -6.03811
lowerneck -7.18492 0.689056 6.45177
upperneck 1.55558 0.208524 3.7763
head 1.71265 0.244669 0.103048
lclavicle 8.94531e-016 3.49861e-014 0
lhumerus -58.621 -46.8671 115.419
lradius 55.7766 -0 0
lwrist 25.5925 0 0
lhand 37.526 25.3263 2.73242e-005
lfingers 7.12502 -0 0
lthumb 60.3145 38.7719 -4.40182e-005
rclavicle 8.94531e-016 3.49861e-014 0
rhumerus 2.01696 -23.2559 0.596027
rradius 27.5066 -0 0
rwrist -9.476 0 0
rhand -30.5117 -41.7501 -5.86526e-005
rfingers 7.12502 -0 0
rthumb -3.81157 -71.6957 -5.67002e-005
1064
root 1.22645 15.1637 32.5969 4.94304 -3.42541 3.34385
lfemur 8.41007 0.538714 5.50562
ltibia 1.0833 -0 0
lfoot -30.9837 -10.9229 -0.00278136
ltoes -34.29 0 0
rfemur -30.7928 -15.3935 -6.33588
rtibia 49.8054 -0 0
rfoot -21.8301 5.222 -3.93574e-005
rtoes -40.9638 0 0
lowerback -1.93772 -0.0537555 -0.339428
upperback -0.489622 -0.0286229 -6.00116
thorax 0.581232 -0.0153552 -6.02806
lowerneck -7.20241 0.686749 6.44461
upperneck 1.58287 0.202876 3.78272
head 1.72467 0.243158 0.106137
lclavicle 8.94531e-016 3.49861e-014 0
lhumerus -58.607 -46.8575 115.416
lradius 55.7716 -0 0
lwrist 25.592 0 0
lhand 37.5333 25.3287 2.94032e-005
lfingers 7.12502 -0 0
lthumb 60.3207 38.7675 -4.73674e-005
rclavicle 8.94531e-016 3.49861e-014 0
rhumerus 2.01162 -23.2288 0.589731
rradius 27.5101 -0 0
rwrist -9.4549 0 0
rhand -30.5132 -41.7251 -6.31153e-005
rfingers 7.12502 -0 0
rthumb -3.81298 -71.6707 -6.10143e-005
